<?xml version="1.0" ?>

<!-- Uploaded to: SVG Repo, www.svgrepo.com, Generator: SVG Repo Mixer Tools -->
<svg fill="#000000" width="800px" height="800px" viewBox="0 0 512 512" version="1.1" xml:space="preserve" xmlns="http://www.w3.org/2000/svg" xmlns:xlink="http://www.w3.org/1999/xlink">

<g id="chat-message-phone-heart-love">

<path d="M376,152h-24V72c0-22.055-17.945-40-40-40H136c-22.055,0-40,17.945-40,40v368c0,22.055,17.945,40,40,40h176   c22.055,0,40-17.945,40-40V288h24c17.673,0,32-14.327,32-32v-72C408,166.327,393.673,152,376,152z M339.784,199.072   c6.283,7.845,4.913,19.398-2.104,26.594l-19.952,20.46c-3.14,3.22-8.315,3.22-11.455,0l-19.952-20.46   c-7.017-7.196-8.387-18.749-2.104-26.594c7.145-8.922,20.021-9.402,27.784-1.442C319.763,189.67,332.64,190.15,339.784,199.072z    M176,424c0-8.837,7.164-16,16-16h64c8.836,0,16,7.163,16,16c0,8.836-7.164,16-16,16h-64C183.164,440,176,432.836,176,424z    M336,376H112V88h224v64h-88c-17.673,0-32,14.327-32,32v72c0,17.673,14.327,32,32,32h8v36.686c0,7.127,8.617,10.697,13.657,5.657   L312,288h24V376z"/>

</g>

<g id="Layer_1"/>

</svg>